<svg version="1.1" id="Layer_1" xmlns="http://www.w3.org/2000/svg" xmlns:xlink="http://www.w3.org/1999/xlink" x="0px" y="0px"
	 width="100%" viewBox="0 0 2000 2000" enable-background="new 2000 2000 2000 2000" xml:space="">
<path fill="#4C6971" opacity="1.000000" stroke="none"
	d="
M1136.000000,2001.000000
	C757.333313,2001.000000 379.166656,2001.000000 1.000000,2001.000000
	C1.000000,1334.333374 1.000000,667.666687 1.000000,1.000000
	C667.666687,1.000000 1334.333374,1.000000 2001.000000,1.000000
	C2001.000000,667.666687 2001.000000,1334.333374 2001.000000,2001.000000
	C1712.833374,2001.000000 1424.666626,2001.000000 1136.000000,2001.000000
M947.500000,753.000000
	C888.756592,753.000000 830.013184,753.000000 771.315918,753.000000
	C771.315918,860.054993 771.315918,966.304321 771.315918,1072.597290
	C923.997192,1072.597290 1076.362183,1072.597290 1228.684082,1072.597290
	C1228.684082,965.944885 1228.684082,859.695557 1228.684082,753.000000
	C1135.079224,753.000000 1041.789551,753.000000 947.500000,753.000000
M827.000000,1223.500000
	C827.000000,1231.590088 827.000000,1239.680298 827.000000,1247.601807
	C835.757446,1247.601807 843.814514,1247.601807 852.000000,1247.601807
	C852.000000,1238.377686 852.334473,1229.533813 851.873962,1220.731567
	C851.600098,1215.496704 853.198853,1211.892334 857.415710,1209.553955
	C865.512817,1221.784912 873.589172,1234.005005 881.707947,1246.196655
	C882.181335,1246.907593 882.992554,1247.894409 883.656677,1247.902344
	C893.034912,1248.014038 902.414917,1247.978271 912.544189,1247.978271
	C911.340698,1245.896362 910.685120,1244.612915 909.895142,1243.418335
	C899.477051,1227.664551 889.113098,1211.873779 878.524719,1196.234985
	C877.030457,1194.027954 876.727112,1192.857666 878.606567,1190.789673
	C886.247314,1182.382568 893.700256,1173.804688 901.214172,1165.282349
	C904.852966,1161.155396 908.473450,1157.012207 912.862244,1152.010132
	C901.796753,1152.010132 891.881348,1152.000244 881.966064,1152.035278
	C881.383301,1152.037354 880.601624,1152.224731 880.250061,1152.623535
	C875.465027,1158.052246 870.762146,1163.553223 865.993103,1168.996216
	C861.643982,1173.960083 857.239136,1178.874878 852.858887,1183.811401
	C852.521179,1183.608276 852.183411,1183.405273 851.845703,1183.202148
	C851.845703,1172.941772 851.845703,1162.681519 851.845703,1152.307373
	C843.430176,1152.307373 835.376953,1152.307373 827.000000,1152.307373
	C827.000000,1175.908936 827.000000,1199.204468 827.000000,1223.500000
M754.575378,1173.855103
	C759.248474,1171.709595 763.487915,1173.465698 767.721130,1175.309814
	C773.654907,1177.894531 773.737793,1183.991943 775.575012,1188.727905
	C783.808350,1188.727905 791.745667,1188.727905 799.661560,1188.727905
	C800.400940,1173.420288 793.360657,1162.789062 781.020813,1155.458008
	C772.444275,1150.362671 763.058105,1150.717041 753.712830,1151.048950
	C738.804443,1151.578491 727.600830,1158.583130 720.222778,1171.479004
	C712.163879,1185.564941 712.332642,1200.981812 715.339172,1216.023926
	C717.833008,1228.501099 724.955017,1238.835205 737.122498,1244.582764
	C747.749023,1249.602417 758.937866,1250.282349 770.244019,1247.933594
	C789.439209,1243.945801 799.868652,1229.515991 799.593933,1210.231567
	C791.506042,1210.231567 783.413879,1210.231567 775.251465,1210.231567
	C775.105835,1211.364990 775.094177,1212.361572 774.840210,1213.292114
	C772.326111,1222.503662 769.147034,1225.164062 759.512085,1226.201172
	C751.732361,1227.038330 746.345276,1223.947266 742.591553,1216.075562
	C738.338562,1207.157104 738.033386,1198.012085 740.778625,1188.467285
	C742.832336,1181.326660 746.428955,1176.123901 754.575378,1173.855103
M1114.000000,1203.500000
	C1114.000000,1195.960938 1114.000000,1188.421997 1114.000000,1180.008179
	C1115.427856,1181.860107 1116.263428,1182.822754 1116.966675,1183.874023
	C1130.907471,1204.715698 1144.818359,1225.577271 1158.803101,1246.389404
	C1159.525024,1247.463745 1160.813965,1248.813354 1161.902222,1248.872559
	C1166.820190,1249.140259 1171.760864,1248.989502 1176.654053,1248.989502
	C1176.654053,1215.999512 1176.654053,1183.622803 1176.654053,1151.397461
	C1171.242065,1151.397461 1166.182739,1151.397461 1160.746948,1151.397461
	C1160.746948,1174.318481 1160.746948,1196.843628 1160.746948,1219.854980
	C1159.916382,1219.152222 1159.472534,1218.917603 1159.228882,1218.550293
	C1144.924927,1196.979614 1130.649048,1175.390381 1116.314941,1153.839844
	C1115.579468,1152.734131 1114.399902,1151.203247 1113.356323,1151.145386
	C1108.289062,1150.864380 1103.197510,1151.018433 1098.254517,1151.018433
	C1098.254517,1184.052002 1098.254517,1216.310669 1098.254517,1248.694458
	C1103.567017,1248.694458 1108.619629,1248.694458 1114.000000,1248.694458
	C1114.000000,1233.760864 1114.000000,1219.130493 1114.000000,1203.500000
M1520.921997,1224.680664
	C1518.161011,1217.093140 1514.987549,1209.760864 1507.907837,1204.707031
	C1518.630737,1200.859863 1524.409912,1191.820923 1525.129761,1181.117188
	C1526.387451,1162.417603 1513.371948,1149.678467 1494.661377,1150.847290
	C1481.885498,1151.645386 1469.019653,1151.000000 1456.193970,1151.000000
	C1452.915527,1151.000000 1449.637085,1151.000000 1446.313477,1151.000000
	C1446.313477,1183.936035 1446.313477,1216.310913 1446.313477,1248.635498
	C1451.688721,1248.635498 1456.745239,1248.635498 1462.126221,1248.635498
	C1462.126221,1235.339111 1462.126221,1222.404053 1462.126221,1209.000000
	C1469.407104,1209.000000 1476.358032,1209.064087 1483.307251,1208.983398
	C1491.605957,1208.887085 1497.716675,1212.758667 1500.879272,1220.092163
	C1504.908813,1229.435425 1508.027954,1239.171387 1511.529297,1248.710327
	C1517.303223,1248.710327 1523.050049,1248.710327 1529.525879,1248.710327
	C1526.565063,1240.641357 1523.782104,1233.057129 1520.921997,1224.680664
M1298.998291,1202.282959
	C1298.665894,1198.519653 1298.257446,1194.761108 1298.013550,1190.992065
	C1296.342773,1165.173340 1279.644775,1152.183472 1256.428101,1151.098267
	C1244.456665,1150.538696 1232.437500,1150.990601 1220.439819,1151.012695
	C1219.014526,1151.015259 1217.589600,1151.189819 1216.242920,1151.279419
	C1216.242920,1184.011353 1216.242920,1216.277710 1216.242920,1248.001587
	C1231.534790,1248.001587 1246.654907,1248.958008 1261.598755,1247.744507
	C1278.003784,1246.412476 1289.998657,1237.541748 1295.177246,1221.301025
	C1297.039673,1215.460205 1297.751465,1209.252319 1298.998291,1202.282959
M473.000000,1221.500000
	C473.000000,1230.258789 473.000000,1239.017578 473.000000,1247.594971
	C481.764099,1247.594971 489.822113,1247.594971 498.211090,1247.594971
	C498.211090,1235.585327 498.211090,1223.979004 498.211090,1211.857178
	C510.948364,1211.857178 523.344360,1211.857178 535.612671,1211.857178
	C535.612671,1203.935547 535.612671,1196.543823 535.612671,1188.821289
	C522.953613,1188.821289 510.678833,1188.821289 498.316406,1188.821289
	C498.316406,1184.079468 498.316406,1179.691528 498.316406,1174.785522
	C513.022095,1174.785522 527.416016,1174.785522 541.753601,1174.785522
	C541.753601,1166.987183 541.753601,1159.716064 541.753601,1152.298828
	C518.785522,1152.298828 496.064850,1152.298828 473.000000,1152.298828
	C473.000000,1175.230469 473.000000,1197.865234 473.000000,1221.500000
M1366.503906,1234.000000
	C1361.413330,1234.000000 1356.322632,1234.000000 1351.395020,1234.000000
	C1351.395020,1224.247559 1351.395020,1215.192627 1351.395020,1205.815674
	C1369.054443,1205.815674 1386.320923,1205.815674 1403.688232,1205.815674
	C1403.688232,1200.752686 1403.688232,1196.033569 1403.688232,1190.804932
	C1385.994995,1190.804932 1368.607788,1190.804932 1351.404663,1190.804932
	C1351.404663,1182.229980 1351.404663,1174.175049 1351.404663,1165.800415
	C1370.072998,1165.800415 1388.338379,1165.800415 1406.680054,1165.800415
	C1406.680054,1160.737061 1406.680054,1156.017700 1406.680054,1151.359009
	C1382.645874,1151.359009 1358.933472,1151.359009 1335.392578,1151.359009
	C1335.392578,1184.095093 1335.392578,1216.470947 1335.392578,1248.745850
	C1360.047241,1248.745850 1384.308350,1248.745850 1408.695068,1248.745850
	C1408.695068,1243.767822 1408.695068,1239.048584 1408.695068,1234.000000
	C1394.762573,1234.000000 1381.132446,1234.000000 1366.503906,1234.000000
M569.000000,1234.490479
	C569.000000,1238.911865 569.000000,1243.333374 569.000000,1247.634033
	C591.054504,1247.634033 612.423950,1247.634033 633.766846,1247.634033
	C633.766846,1240.001343 633.766846,1232.736694 633.766846,1224.969482
	C620.494385,1224.969482 607.442993,1224.969482 593.912842,1224.969482
	C593.912842,1200.430298 593.912842,1176.393311 593.912842,1152.332520
	C585.368164,1152.332520 577.319397,1152.332520 569.000000,1152.332520
	C569.000000,1179.607422 569.000000,1206.550781 569.000000,1234.490479
M954.692139,1166.000366
	C970.751587,1166.000366 986.811096,1166.000366 1002.730408,1166.000366
	C1002.730408,1160.597412 1002.730408,1155.994751 1002.730408,1151.295898
	C980.089661,1151.295898 957.719604,1151.295898 935.309082,1151.295898
	C935.309082,1183.954834 935.309082,1216.316772 935.309082,1248.643066
	C940.677002,1248.643066 945.730713,1248.643066 951.278564,1248.643066
	C951.278564,1234.240112 951.278564,1220.190674 951.278564,1205.826172
	C966.379761,1205.826172 980.974854,1205.826172 995.700256,1205.826172
	C995.700256,1200.774414 995.700256,1196.057129 995.700256,1190.836304
	C980.691162,1190.836304 965.974182,1190.836304 951.002625,1190.836304
	C951.002625,1183.192993 950.896606,1176.051392 951.123718,1168.920654
	C951.155518,1167.921387 952.820740,1166.974243 954.692139,1166.000366
M685.000000,1199.500000
	C685.000000,1183.748901 685.000000,1167.997803 685.000000,1152.393311
	C676.251892,1152.393311 668.195496,1152.393311 660.254883,1152.393311
	C660.254883,1184.381104 660.254883,1215.974854 660.254883,1247.695068
	C668.565369,1247.695068 676.618225,1247.695068 685.000000,1247.695068
	C685.000000,1231.761597 685.000000,1216.130859 685.000000,1199.500000
M1057.000000,1161.527100
	C1057.000000,1158.097900 1057.000000,1154.668823 1057.000000,1151.391113
	C1050.921265,1151.391113 1045.529907,1151.391113 1040.252441,1151.391113
	C1040.252441,1184.043335 1040.252441,1216.303833 1040.252441,1248.696411
	C1045.894897,1248.696411 1051.281250,1248.696411 1057.000000,1248.696411
	C1057.000000,1219.769775 1057.000000,1191.145386 1057.000000,1161.527100
z"/>
<path fill="#AAFF00" opacity="1.000000" stroke="none"
	d="
M948.000000,753.000000
	C1041.789551,753.000000 1135.079224,753.000000 1228.684082,753.000000
	C1228.684082,859.695557 1228.684082,965.944885 1228.684082,1072.597290
	C1076.362183,1072.597290 923.997192,1072.597290 771.315918,1072.597290
	C771.315918,966.304321 771.315918,860.054993 771.315918,753.000000
	C830.013184,753.000000 888.756592,753.000000 948.000000,753.000000
M1140.000000,952.500000
	C1140.000000,893.096985 1140.000000,833.694031 1140.000000,774.309937
	C1126.626587,774.309937 1114.040161,774.309937 1100.833374,774.309937
	C1100.833374,821.650696 1100.833374,868.685486 1100.833374,916.165527
	C1067.292114,916.165527 1034.373901,916.165527 1001.403381,916.165527
	C1001.403381,929.325989 1001.403381,942.030212 1001.403381,955.180176
	C1034.722656,955.180176 1067.640747,955.180176 1100.590820,955.180176
	C1100.590820,974.671753 1100.590820,993.708252 1100.590820,1013.187256
	C1049.268799,1013.187256 998.354492,1013.187256 947.412048,1013.187256
	C947.412048,1026.343750 947.412048,1039.047974 947.412048,1051.682739
	C1011.735352,1051.682739 1075.646118,1051.682739 1140.000000,1051.682739
	C1140.000000,1018.744995 1140.000000,986.122498 1140.000000,952.500000
M899.000000,1021.500000
	C899.000000,984.426025 899.000000,947.352112 899.000000,909.831543
	C932.710815,909.831543 965.628967,909.831543 998.595093,909.831543
	C998.595093,897.004150 998.595093,884.633301 998.595093,871.816772
	C965.274170,871.816772 932.356018,871.816772 899.410645,871.816772
	C899.410645,851.991882 899.410645,832.622070 899.410645,812.809814
	C951.067444,812.809814 1002.315125,812.809814 1053.586426,812.809814
	C1053.586426,799.653381 1053.586426,786.949036 1053.586426,774.318726
	C989.261658,774.318726 925.350891,774.318726 861.393738,774.318726
	C861.393738,866.995178 861.393738,959.352417 861.393738,1051.688354
	C874.043030,1051.688354 886.296448,1051.688354 899.000000,1051.688354
	C899.000000,1041.755737 899.000000,1032.127808 899.000000,1021.500000
M832.000000,788.505249
	C832.000000,783.752991 832.000000,779.000671 832.000000,774.312927
	C820.612183,774.312927 810.029480,774.312927 799.401245,774.312927
	C799.401245,785.664246 799.401245,796.698120 799.401245,807.686890
	C810.387878,807.686890 820.970886,807.686890 832.000000,807.686890
	C832.000000,801.421387 832.000000,795.462402 832.000000,788.505249
M1170.768921,868.990601
	C1180.704224,868.990601 1190.639648,868.990601 1200.586304,868.990601
	C1200.586304,857.316223 1200.586304,846.278992 1200.586304,835.329956
	C1189.583374,835.329956 1178.997192,835.329956 1168.020752,835.329956
	C1168.020752,845.951904 1167.980347,856.249268 1168.098511,866.544678
	C1168.107910,867.354858 1169.220947,868.152405 1170.768921,868.990601
M1168.000000,794.489990
	C1168.000000,798.907104 1168.000000,803.324219 1168.000000,807.688171
	C1179.385254,807.688171 1189.968140,807.688171 1200.599609,807.688171
	C1200.599609,796.338135 1200.599609,785.304016 1200.599609,774.312439
	C1189.613770,774.312439 1179.030640,774.312439 1168.000000,774.312439
	C1168.000000,780.910645 1168.000000,787.202393 1168.000000,794.489990
M832.000000,850.503418
	C832.000000,845.416443 832.000000,840.329468 832.000000,835.313354
	C820.611633,835.313354 810.028564,835.313354 799.401733,835.313354
	C799.401733,846.664978 799.401733,857.699036 799.401733,868.686279
	C810.388977,868.686279 820.972046,868.686279 832.000000,868.686279
	C832.000000,862.753540 832.000000,857.127197 832.000000,850.503418
M1201.000000,1028.530029
	C1201.000000,1025.110962 1201.000000,1021.691772 1201.000000,1018.305908
	C1189.627441,1018.305908 1179.044312,1018.305908 1168.394531,1018.305908
	C1168.394531,1029.649658 1168.394531,1040.683838 1168.394531,1051.692993
	C1179.374756,1051.692993 1189.958008,1051.692993 1201.000000,1051.692993
	C1201.000000,1044.102173 1201.000000,1036.812500 1201.000000,1028.530029
M799.000000,1038.489990
	C799.000000,1042.907104 799.000000,1047.324219 799.000000,1051.688232
	C810.385254,1051.688232 820.968140,1051.688232 831.599731,1051.688232
	C831.599731,1040.338135 831.599731,1029.304077 831.599731,1018.312378
	C820.613831,1018.312378 810.030701,1018.312378 799.000000,1018.312378
	C799.000000,1024.910522 799.000000,1031.202393 799.000000,1038.489990
M1170.768921,990.990601
	C1180.704224,990.990601 1190.639648,990.990601 1200.586304,990.990601
	C1200.586304,979.316223 1200.586304,968.278992 1200.586304,957.329956
	C1189.583374,957.329956 1178.997314,957.329956 1168.020752,957.329956
	C1168.020752,967.951904 1167.980225,978.249268 1168.098511,988.544678
	C1168.107788,989.354858 1169.220947,990.152405 1170.768921,990.990601
M817.495117,991.000000
	C822.247375,991.000000 826.999634,991.000000 831.687134,991.000000
	C831.687134,979.278870 831.687134,968.362915 831.687134,957.401367
	C820.669434,957.401367 809.968384,957.401367 799.313110,957.401367
	C799.313110,968.721619 799.313110,979.637573 799.313110,991.000000
	C805.244995,991.000000 810.871155,991.000000 817.495117,991.000000
M1177.545898,896.000000
	C1174.457520,896.000000 1171.369019,896.000000 1168.301025,896.000000
	C1168.301025,907.695557 1168.301025,918.612122 1168.301025,929.609253
	C1179.307129,929.609253 1190.008545,929.609253 1200.696533,929.609253
	C1200.696533,918.299683 1200.696533,907.382996 1200.696533,896.000000
	C1193.109863,896.000000 1185.820923,896.000000 1177.545898,896.000000
M831.955811,897.820740
	C831.483398,897.249084 831.015503,896.182800 830.537903,896.178467
	C820.122314,896.083069 809.705688,896.105713 799.302490,896.105713
	C799.302490,907.693970 799.302490,918.612793 799.302490,929.604614
	C810.312256,929.604614 821.015930,929.604614 831.990479,929.604614
	C831.990479,919.064270 831.990479,908.916809 831.955811,897.820740
z"/>
<path fill="#FFFFFF" opacity="1.000000" stroke="none"
	d="
M827.000000,1223.000000
	C827.000000,1199.204468 827.000000,1175.908936 827.000000,1152.307373
	C835.376953,1152.307373 843.430176,1152.307373 851.845703,1152.307373
	C851.845703,1162.681519 851.845703,1172.941772 851.845703,1183.202148
	C852.183411,1183.405273 852.521179,1183.608276 852.858887,1183.811401
	C857.239136,1178.874878 861.643982,1173.960083 865.993103,1168.996216
	C870.762146,1163.553223 875.465027,1158.052246 880.250061,1152.623535
	C880.601624,1152.224731 881.383301,1152.037354 881.966064,1152.035278
	C891.881348,1152.000244 901.796753,1152.010132 912.862244,1152.010132
	C908.473450,1157.012207 904.852966,1161.155396 901.214172,1165.282349
	C893.700256,1173.804688 886.247314,1182.382568 878.606567,1190.789673
	C876.727112,1192.857666 877.030457,1194.027954 878.524719,1196.234985
	C889.113098,1211.873779 899.477051,1227.664551 909.895142,1243.418335
	C910.685120,1244.612915 911.340698,1245.896362 912.544189,1247.978271
	C902.414917,1247.978271 893.034912,1248.014038 883.656677,1247.902344
	C882.992554,1247.894409 882.181335,1246.907593 881.707947,1246.196655
	C873.589172,1234.005005 865.512817,1221.784912 857.415710,1209.553955
	C853.198853,1211.892334 851.600098,1215.496704 851.873962,1220.731567
	C852.334473,1229.533813 852.000000,1238.377686 852.000000,1247.601807
	C843.814514,1247.601807 835.757446,1247.601807 827.000000,1247.601807
	C827.000000,1239.680298 827.000000,1231.590088 827.000000,1223.000000
z"/>
<path fill="#FFFFFF" opacity="1.000000" stroke="none"
	d="
M754.169006,1173.919922
	C746.428955,1176.123901 742.832336,1181.326660 740.778625,1188.467285
	C738.033386,1198.012085 738.338562,1207.157104 742.591553,1216.075562
	C746.345276,1223.947266 751.732361,1227.038330 759.512085,1226.201172
	C769.147034,1225.164062 772.326111,1222.503662 774.840210,1213.292114
	C775.094177,1212.361572 775.105835,1211.364990 775.251465,1210.231567
	C783.413879,1210.231567 791.506042,1210.231567 799.593933,1210.231567
	C799.868652,1229.515991 789.439209,1243.945801 770.244019,1247.933594
	C758.937866,1250.282349 747.749023,1249.602417 737.122498,1244.582764
	C724.955017,1238.835205 717.833008,1228.501099 715.339172,1216.023926
	C712.332642,1200.981812 712.163879,1185.564941 720.222778,1171.479004
	C727.600830,1158.583130 738.804443,1151.578491 753.712830,1151.048950
	C763.058105,1150.717041 772.444275,1150.362671 781.020813,1155.458008
	C793.360657,1162.789062 800.400940,1173.420288 799.661560,1188.727905
	C791.745667,1188.727905 783.808350,1188.727905 775.575012,1188.727905
	C773.737793,1183.991943 773.654907,1177.894531 767.721130,1175.309814
	C763.487915,1173.465698 759.248474,1171.709595 754.169006,1173.919922
z"/>
<path fill="#FFFFFF" opacity="1.000000" stroke="none"
	d="
M1114.000000,1204.000000
	C1114.000000,1219.130493 1114.000000,1233.760864 1114.000000,1248.694458
	C1108.619629,1248.694458 1103.567017,1248.694458 1098.254517,1248.694458
	C1098.254517,1216.310669 1098.254517,1184.052002 1098.254517,1151.018433
	C1103.197510,1151.018433 1108.289062,1150.864380 1113.356323,1151.145386
	C1114.399902,1151.203247 1115.579468,1152.734131 1116.314941,1153.839844
	C1130.649048,1175.390381 1144.924927,1196.979614 1159.228882,1218.550293
	C1159.472534,1218.917603 1159.916382,1219.152222 1160.746948,1219.854980
	C1160.746948,1196.843628 1160.746948,1174.318481 1160.746948,1151.397461
	C1166.182739,1151.397461 1171.242065,1151.397461 1176.654053,1151.397461
	C1176.654053,1183.622803 1176.654053,1215.999512 1176.654053,1248.989502
	C1171.760864,1248.989502 1166.820190,1249.140259 1161.902222,1248.872559
	C1160.813965,1248.813354 1159.525024,1247.463745 1158.803101,1246.389404
	C1144.818359,1225.577271 1130.907471,1204.715698 1116.966675,1183.874023
	C1116.263428,1182.822754 1115.427856,1181.860107 1114.000000,1180.008179
	C1114.000000,1188.421997 1114.000000,1195.960938 1114.000000,1204.000000
z"/>
<path fill="#FFFFFF" opacity="1.000000" stroke="none"
	d="
M1520.960571,1225.076782
	C1523.782104,1233.057129 1526.565063,1240.641357 1529.525879,1248.710327
	C1523.050049,1248.710327 1517.303223,1248.710327 1511.529297,1248.710327
	C1508.027954,1239.171387 1504.908813,1229.435425 1500.879272,1220.092163
	C1497.716675,1212.758667 1491.605957,1208.887085 1483.307251,1208.983398
	C1476.358032,1209.064087 1469.407104,1209.000000 1462.126221,1209.000000
	C1462.126221,1222.404053 1462.126221,1235.339111 1462.126221,1248.635498
	C1456.745239,1248.635498 1451.688721,1248.635498 1446.313477,1248.635498
	C1446.313477,1216.310913 1446.313477,1183.936035 1446.313477,1151.000000
	C1449.637085,1151.000000 1452.915527,1151.000000 1456.193970,1151.000000
	C1469.019653,1151.000000 1481.885498,1151.645386 1494.661377,1150.847290
	C1513.371948,1149.678467 1526.387451,1162.417603 1525.129761,1181.117188
	C1524.409912,1191.820923 1518.630737,1200.859863 1507.907837,1204.707031
	C1514.987549,1209.760864 1518.161011,1217.093140 1520.960571,1225.076782
M1506.114014,1187.455566
	C1511.196289,1177.944214 1508.017944,1167.256958 1498.669678,1166.323120
	C1486.654297,1165.122925 1474.428345,1166.031250 1462.352783,1166.031250
	C1462.352783,1174.698486 1462.352783,1183.735840 1462.352783,1192.996338
	C1473.654419,1192.996338 1484.625854,1193.376709 1495.543579,1192.777710
	C1499.083862,1192.583374 1502.483643,1189.823853 1506.114014,1187.455566
z"/>
<path fill="#FFFFFF" opacity="1.000000" stroke="none"
	d="
M1298.993408,1202.747437
	C1297.751465,1209.252319 1297.039673,1215.460205 1295.177246,1221.301025
	C1289.998657,1237.541748 1278.003784,1246.412476 1261.598755,1247.744507
	C1246.654907,1248.958008 1231.534790,1248.001587 1216.242920,1248.001587
	C1216.242920,1216.277710 1216.242920,1184.011353 1216.242920,1151.279419
	C1217.589600,1151.189819 1219.014526,1151.015259 1220.439819,1151.012695
	C1232.437500,1150.990601 1244.456665,1150.538696 1256.428101,1151.098267
	C1279.644775,1152.183472 1296.342773,1165.173340 1298.013550,1190.992065
	C1298.257446,1194.761108 1298.665894,1198.519653 1298.993408,1202.747437
M1233.000000,1203.500000
	C1233.000000,1213.586792 1233.000000,1223.673462 1233.000000,1234.458862
	C1242.279053,1233.938965 1250.962158,1234.203491 1259.361206,1232.785278
	C1269.105103,1231.139771 1277.323486,1226.024902 1280.092285,1213.544067
	C1281.931519,1205.253540 1282.624634,1197.045288 1280.972412,1188.709839
	C1278.897217,1178.240967 1273.661499,1169.695312 1262.773926,1167.599731
	C1253.193481,1165.755737 1243.196533,1166.075684 1233.000000,1165.415161
	C1233.000000,1178.572266 1233.000000,1190.536133 1233.000000,1203.500000
z"/>
<path fill="#FFFFFF" opacity="1.000000" stroke="none"
	d="
M473.000000,1221.000000
	C473.000000,1197.865234 473.000000,1175.230469 473.000000,1152.298828
	C496.064850,1152.298828 518.785522,1152.298828 541.753601,1152.298828
	C541.753601,1159.716064 541.753601,1166.987183 541.753601,1174.785522
	C527.416016,1174.785522 513.022095,1174.785522 498.316406,1174.785522
	C498.316406,1179.691528 498.316406,1184.079468 498.316406,1188.821289
	C510.678833,1188.821289 522.953613,1188.821289 535.612671,1188.821289
	C535.612671,1196.543823 535.612671,1203.935547 535.612671,1211.857178
	C523.344360,1211.857178 510.948364,1211.857178 498.211090,1211.857178
	C498.211090,1223.979004 498.211090,1235.585327 498.211090,1247.594971
	C489.822113,1247.594971 481.764099,1247.594971 473.000000,1247.594971
	C473.000000,1239.017578 473.000000,1230.258789 473.000000,1221.000000
z"/>
<path fill="#FFFFFF" opacity="1.000000" stroke="none"
	d="
M1367.003052,1234.000000
	C1381.132446,1234.000000 1394.762573,1234.000000 1408.695068,1234.000000
	C1408.695068,1239.048584 1408.695068,1243.767822 1408.695068,1248.745850
	C1384.308350,1248.745850 1360.047241,1248.745850 1335.392578,1248.745850
	C1335.392578,1216.470947 1335.392578,1184.095093 1335.392578,1151.359009
	C1358.933472,1151.359009 1382.645874,1151.359009 1406.680054,1151.359009
	C1406.680054,1156.017700 1406.680054,1160.737061 1406.680054,1165.800415
	C1388.338379,1165.800415 1370.072998,1165.800415 1351.404663,1165.800415
	C1351.404663,1174.175049 1351.404663,1182.229980 1351.404663,1190.804932
	C1368.607788,1190.804932 1385.994995,1190.804932 1403.688232,1190.804932
	C1403.688232,1196.033569 1403.688232,1200.752686 1403.688232,1205.815674
	C1386.320923,1205.815674 1369.054443,1205.815674 1351.395020,1205.815674
	C1351.395020,1215.192627 1351.395020,1224.247559 1351.395020,1234.000000
	C1356.322632,1234.000000 1361.413330,1234.000000 1367.003052,1234.000000
z"/>
<path fill="#FFFFFF" opacity="1.000000" stroke="none"
	d="
M569.000000,1233.992432
	C569.000000,1206.550781 569.000000,1179.607422 569.000000,1152.332520
	C577.319397,1152.332520 585.368164,1152.332520 593.912842,1152.332520
	C593.912842,1176.393311 593.912842,1200.430298 593.912842,1224.969482
	C607.442993,1224.969482 620.494385,1224.969482 633.766846,1224.969482
	C633.766846,1232.736694 633.766846,1240.001343 633.766846,1247.634033
	C612.423950,1247.634033 591.054504,1247.634033 569.000000,1247.634033
	C569.000000,1243.333374 569.000000,1238.911865 569.000000,1233.992432
z"/>
<path fill="#FFFFFF" opacity="1.000000" stroke="none"
	d="
M954.210938,1166.001709
	C952.820740,1166.974243 951.155518,1167.921387 951.123718,1168.920654
	C950.896606,1176.051392 951.002625,1183.192993 951.002625,1190.836304
	C965.974182,1190.836304 980.691162,1190.836304 995.700256,1190.836304
	C995.700256,1196.057129 995.700256,1200.774414 995.700256,1205.826172
	C980.974854,1205.826172 966.379761,1205.826172 951.278564,1205.826172
	C951.278564,1220.190674 951.278564,1234.240112 951.278564,1248.643066
	C945.730713,1248.643066 940.677002,1248.643066 935.309082,1248.643066
	C935.309082,1216.316772 935.309082,1183.954834 935.309082,1151.295898
	C957.719604,1151.295898 980.089661,1151.295898 1002.730408,1151.295898
	C1002.730408,1155.994751 1002.730408,1160.597412 1002.730408,1166.000366
	C986.811096,1166.000366 970.751587,1166.000366 954.210938,1166.001709
z"/>
<path fill="#FFFFFF" opacity="1.000000" stroke="none"
	d="
M685.000000,1200.000000
	C685.000000,1216.130859 685.000000,1231.761597 685.000000,1247.695068
	C676.618225,1247.695068 668.565369,1247.695068 660.254883,1247.695068
	C660.254883,1215.974854 660.254883,1184.381104 660.254883,1152.393311
	C668.195496,1152.393311 676.251892,1152.393311 685.000000,1152.393311
	C685.000000,1167.997803 685.000000,1183.748901 685.000000,1200.000000
z"/>
<path fill="#FFFFFF" opacity="1.000000" stroke="none"
	d="
M1057.000000,1162.024048
	C1057.000000,1191.145386 1057.000000,1219.769775 1057.000000,1248.696411
	C1051.281250,1248.696411 1045.894897,1248.696411 1040.252441,1248.696411
	C1040.252441,1216.303833 1040.252441,1184.043335 1040.252441,1151.391113
	C1045.529907,1151.391113 1050.921265,1151.391113 1057.000000,1151.391113
	C1057.000000,1154.668823 1057.000000,1158.097900 1057.000000,1162.024048
z"/>
<path fill="#4C6971" opacity="1.000000" stroke="none"
	d="
M1140.000000,953.000000
	C1140.000000,986.122498 1140.000000,1018.744995 1140.000000,1051.682739
	C1075.646118,1051.682739 1011.735352,1051.682739 947.412048,1051.682739
	C947.412048,1039.047974 947.412048,1026.343750 947.412048,1013.187256
	C998.354492,1013.187256 1049.268799,1013.187256 1100.590820,1013.187256
	C1100.590820,993.708252 1100.590820,974.671753 1100.590820,955.180176
	C1067.640747,955.180176 1034.722656,955.180176 1001.403381,955.180176
	C1001.403381,942.030212 1001.403381,929.325989 1001.403381,916.165527
	C1034.373901,916.165527 1067.292114,916.165527 1100.833374,916.165527
	C1100.833374,868.685486 1100.833374,821.650696 1100.833374,774.309937
	C1114.040161,774.309937 1126.626587,774.309937 1140.000000,774.309937
	C1140.000000,833.694031 1140.000000,893.096985 1140.000000,953.000000
z"/>
<path fill="#4C6971" opacity="1.000000" stroke="none"
	d="
M899.000000,1022.000000
	C899.000000,1032.127808 899.000000,1041.755737 899.000000,1051.688354
	C886.296448,1051.688354 874.043030,1051.688354 861.393738,1051.688354
	C861.393738,959.352417 861.393738,866.995178 861.393738,774.318726
	C925.350891,774.318726 989.261658,774.318726 1053.586426,774.318726
	C1053.586426,786.949036 1053.586426,799.653381 1053.586426,812.809814
	C1002.315125,812.809814 951.067444,812.809814 899.410645,812.809814
	C899.410645,832.622070 899.410645,851.991882 899.410645,871.816772
	C932.356018,871.816772 965.274170,871.816772 998.595093,871.816772
	C998.595093,884.633301 998.595093,897.004150 998.595093,909.831543
	C965.628967,909.831543 932.710815,909.831543 899.000000,909.831543
	C899.000000,947.352112 899.000000,984.426025 899.000000,1022.000000
z"/>
<path fill="#4C6971" opacity="1.000000" stroke="none"
	d="
M832.000000,789.004333
	C832.000000,795.462402 832.000000,801.421387 832.000000,807.686890
	C820.970886,807.686890 810.387878,807.686890 799.401245,807.686890
	C799.401245,796.698120 799.401245,785.664246 799.401245,774.312927
	C810.029480,774.312927 820.612183,774.312927 832.000000,774.312927
	C832.000000,779.000671 832.000000,783.752991 832.000000,789.004333
z"/>
<path fill="#4C6971" opacity="1.000000" stroke="none"
	d="
M1170.294922,868.973206
	C1169.220947,868.152405 1168.107910,867.354858 1168.098511,866.544678
	C1167.980347,856.249268 1168.020752,845.951904 1168.020752,835.329956
	C1178.997192,835.329956 1189.583374,835.329956 1200.586304,835.329956
	C1200.586304,846.278992 1200.586304,857.316223 1200.586304,868.990601
	C1190.639648,868.990601 1180.704224,868.990601 1170.294922,868.973206
z"/>
<path fill="#4C6971" opacity="1.000000" stroke="none"
	d="
M1168.000000,793.992065
	C1168.000000,787.202393 1168.000000,780.910645 1168.000000,774.312439
	C1179.030640,774.312439 1189.613770,774.312439 1200.599609,774.312439
	C1200.599609,785.304016 1200.599609,796.338135 1200.599609,807.688171
	C1189.968140,807.688171 1179.385254,807.688171 1168.000000,807.688171
	C1168.000000,803.324219 1168.000000,798.907104 1168.000000,793.992065
z"/>
<path fill="#4C6971" opacity="1.000000" stroke="none"
	d="
M832.000000,851.002136
	C832.000000,857.127197 832.000000,862.753540 832.000000,868.686279
	C820.972046,868.686279 810.388977,868.686279 799.401733,868.686279
	C799.401733,857.699036 799.401733,846.664978 799.401733,835.313354
	C810.028564,835.313354 820.611633,835.313354 832.000000,835.313354
	C832.000000,840.329468 832.000000,845.416443 832.000000,851.002136
z"/>
<path fill="#4C6971" opacity="1.000000" stroke="none"
	d="
M1201.000000,1029.026489
	C1201.000000,1036.812500 1201.000000,1044.102173 1201.000000,1051.692993
	C1189.958008,1051.692993 1179.374756,1051.692993 1168.394531,1051.692993
	C1168.394531,1040.683838 1168.394531,1029.649658 1168.394531,1018.305908
	C1179.044312,1018.305908 1189.627441,1018.305908 1201.000000,1018.305908
	C1201.000000,1021.691772 1201.000000,1025.110962 1201.000000,1029.026489
z"/>
<path fill="#4C6971" opacity="1.000000" stroke="none"
	d="
M799.000000,1037.992065
	C799.000000,1031.202393 799.000000,1024.910522 799.000000,1018.312378
	C810.030701,1018.312378 820.613831,1018.312378 831.599731,1018.312378
	C831.599731,1029.304077 831.599731,1040.338135 831.599731,1051.688232
	C820.968140,1051.688232 810.385254,1051.688232 799.000000,1051.688232
	C799.000000,1047.324219 799.000000,1042.907104 799.000000,1037.992065
z"/>
<path fill="#4C6971" opacity="1.000000" stroke="none"
	d="
M1170.294922,990.973206
	C1169.220947,990.152405 1168.107788,989.354858 1168.098511,988.544678
	C1167.980225,978.249268 1168.020752,967.951904 1168.020752,957.329956
	C1178.997314,957.329956 1189.583374,957.329956 1200.586304,957.329956
	C1200.586304,968.278992 1200.586304,979.316223 1200.586304,990.990601
	C1190.639648,990.990601 1180.704224,990.990601 1170.294922,990.973206
z"/>
<path fill="#4C6971" opacity="1.000000" stroke="none"
	d="
M816.996216,991.000000
	C810.871155,991.000000 805.244995,991.000000 799.313110,991.000000
	C799.313110,979.637573 799.313110,968.721619 799.313110,957.401367
	C809.968384,957.401367 820.669434,957.401367 831.687134,957.401367
	C831.687134,968.362915 831.687134,979.278870 831.687134,991.000000
	C826.999634,991.000000 822.247375,991.000000 816.996216,991.000000
z"/>
<path fill="#4C6971" opacity="1.000000" stroke="none"
	d="
M1178.038818,896.000000
	C1185.820923,896.000000 1193.109863,896.000000 1200.696533,896.000000
	C1200.696533,907.382996 1200.696533,918.299683 1200.696533,929.609253
	C1190.008545,929.609253 1179.307129,929.609253 1168.301025,929.609253
	C1168.301025,918.612122 1168.301025,907.695557 1168.301025,896.000000
	C1171.369019,896.000000 1174.457520,896.000000 1178.038818,896.000000
z"/>
<path fill="#4C6971" opacity="1.000000" stroke="none"
	d="
M831.973145,898.295044
	C831.990479,908.916809 831.990479,919.064270 831.990479,929.604614
	C821.015930,929.604614 810.312256,929.604614 799.302490,929.604614
	C799.302490,918.612793 799.302490,907.693970 799.302490,896.105713
	C809.705688,896.105713 820.122314,896.083069 830.537903,896.178467
	C831.015503,896.182800 831.483398,897.249084 831.973145,898.295044
z"/>
<path fill="#4C6971" opacity="1.000000" stroke="none"
	d="
M1506.030884,1187.846680
	C1502.483643,1189.823853 1499.083862,1192.583374 1495.543579,1192.777710
	C1484.625854,1193.376709 1473.654419,1192.996338 1462.352783,1192.996338
	C1462.352783,1183.735840 1462.352783,1174.698486 1462.352783,1166.031250
	C1474.428345,1166.031250 1486.654297,1165.122925 1498.669678,1166.323120
	C1508.017944,1167.256958 1511.196289,1177.944214 1506.030884,1187.846680
z"/>
<path fill="#4C6971" opacity="1.000000" stroke="none"
	d="
M1233.000000,1203.000000
	C1233.000000,1190.536133 1233.000000,1178.572266 1233.000000,1165.415161
	C1243.196533,1166.075684 1253.193481,1165.755737 1262.773926,1167.599731
	C1273.661499,1169.695312 1278.897217,1178.240967 1280.972412,1188.709839
	C1282.624634,1197.045288 1281.931519,1205.253540 1280.092285,1213.544067
	C1277.323486,1226.024902 1269.105103,1231.139771 1259.361206,1232.785278
	C1250.962158,1234.203491 1242.279053,1233.938965 1233.000000,1234.458862
	C1233.000000,1223.673462 1233.000000,1213.586792 1233.000000,1203.000000
z"/>
</svg>
